<svg xmlns="http://www.w3.org/2000/svg" viewBox="0 0 1781.05 347.53"><defs><style>.cls-1{fill:#231f20;}</style></defs><g id="Layer_2" data-name="Layer 2"><g id="Layer_1-2" data-name="Layer 1"><path class="cls-1" d="M9.57,209.32q1.92,8.43,5.17,13.3a19.73,19.73,0,0,0,8.42,7.23q5.18,2.34,13.3,2.34,11.2,0,17.18-5.83t6-17a26.39,26.39,0,0,0-2.49-12.06A27.71,27.71,0,0,0,49,188.07q-5.66-4.31-17.23-10a95.45,95.45,0,0,1-17.7-10.87,36.84,36.84,0,0,1-9.72-11.53A29.33,29.33,0,0,1,1.15,142a33.91,33.91,0,0,1,5-18.61,32.51,32.51,0,0,1,14.74-12.21,54.42,54.42,0,0,1,22.25-4.3,129.5,129.5,0,0,1,14.21.76,128.77,128.77,0,0,1,17.37,3.45V137H65.27q-2.2-8.43-5.55-13.11a18.4,18.4,0,0,0-7.85-6.56,30.92,30.92,0,0,0-11.67-1.86,26.09,26.09,0,0,0-11.15,2.29,17.84,17.84,0,0,0-7.8,6.94,20.55,20.55,0,0,0-2.87,11,24.62,24.62,0,0,0,2.44,11.49,27,27,0,0,0,7.6,8.71,91.06,91.06,0,0,0,15.32,9Q56,171,62.73,176.3a40.21,40.21,0,0,1,10.53,12A31.7,31.7,0,0,1,77,204.06q0,10-3.16,17a29.5,29.5,0,0,1-8.75,11.3,35.69,35.69,0,0,1-13.4,6.31,69.9,69.9,0,0,1-17.09,2q-15,0-34.64-5.08V209.32Z"/><path class="cls-1" d="M169.88,240.62A55.92,55.92,0,0,1,149,236.84a40.74,40.74,0,0,1-16.17-11.78q-6.75-8-10.44-20.43t-3.68-29.76q0-21.35,6.51-36.66t18.61-23.3q12.1-8,28.09-8,17,0,28.66,7.51t17.52,22.11q5.88,14.6,5.88,35.55,0,22.4-6.7,37.8T198.35,233Q186.16,240.61,169.88,240.62ZM138.4,172.19q0,29.38,8.56,44.69t25,15.31a25.26,25.26,0,0,0,17.7-6.65q7.27-6.64,10.91-19.47t3.64-30q0-20.87-4.26-34.6t-11.63-19.95a25.73,25.73,0,0,0-17.13-6.22,26.47,26.47,0,0,0-14.78,4,31.19,31.19,0,0,0-10.25,11.44,58.54,58.54,0,0,0-5.93,17.94A135.31,135.31,0,0,0,138.4,172.19Z"/><path class="cls-1" d="M296.79,214.87a52,52,0,0,0,.62,9,14.63,14.63,0,0,0,1.92,5.31,8.72,8.72,0,0,0,3.49,3.06,31.83,31.83,0,0,0,6.89,2.15v4.69h-42v-4.69q5.93-1.53,7.94-3.39a9.24,9.24,0,0,0,2.63-5.31,64,64,0,0,0,.63-10.53V132.37a68,68,0,0,0-.48-9.61,12.06,12.06,0,0,0-1.58-4.69,8.19,8.19,0,0,0-2.92-2.68,32.44,32.44,0,0,0-6.22-2.25v-4.69h47.47q22.4,0,33.35,8.56t11,26.08A44.48,44.48,0,0,1,356,161a33.4,33.4,0,0,1-9.76,13,38.93,38.93,0,0,1-14.93,7.27,72.65,72.65,0,0,1-18.09,2.2q-10.62,0-16.46-.38Zm0-39.72h11.1q10.82,0,17.85-2.82A21.09,21.09,0,0,0,336.51,163q3.74-6.55,3.73-17.37a37.16,37.16,0,0,0-2.2-13.73,21.57,21.57,0,0,0-15.31-13.59,46.35,46.35,0,0,0-11.68-1.39q-9.46,0-14.26.38Z"/><path class="cls-1" d="M500,215.16c0,3.7.09,6.48.29,8.32a17.07,17.07,0,0,0,1,4.45,8.94,8.94,0,0,0,1.63,2.73,9.1,9.1,0,0,0,2.73,1.92,30.92,30.92,0,0,0,5.5,1.81v4.69H471v-4.69q5.26-1.33,7.37-3a8.63,8.63,0,0,0,2.92-5,54.28,54.28,0,0,0,.81-11.29v-40.1H428.87v40.1a72.11,72.11,0,0,0,.43,9.38,13.19,13.19,0,0,0,1.44,4.69,8.09,8.09,0,0,0,3,2.87,27,27,0,0,0,6.37,2.29v4.69H399.78v-4.69q5.93-1.53,7.94-3.39a9.24,9.24,0,0,0,2.63-5.31,64.25,64.25,0,0,0,.62-10.53V132.37a70,70,0,0,0-.47-9.61,12.06,12.06,0,0,0-1.58-4.69,8.19,8.19,0,0,0-2.92-2.68,32.44,32.44,0,0,0-6.22-2.25v-4.69h40.29v4.69a26.38,26.38,0,0,0-6.08,2.1,9,9,0,0,0-3,2.64,11.84,11.84,0,0,0-1.62,4.73,65.29,65.29,0,0,0-.53,9.76v33.88h53.21V132.37q0-8.33-.81-11.38a8.92,8.92,0,0,0-2.73-4.69q-1.92-1.64-7.56-3.16v-4.69h40.1v4.69c-3.57.89-6.06,1.9-7.46,3a8.62,8.62,0,0,0-2.88,5,56.72,56.72,0,0,0-.76,11.19Z"/><path class="cls-1" d="M584.3,215.16a74,74,0,0,0,.43,9.38,13.19,13.19,0,0,0,1.44,4.69,8.09,8.09,0,0,0,3,2.87,27,27,0,0,0,6.37,2.29v4.69H555.11v-4.69q5.94-1.53,7.95-3.39a9.3,9.3,0,0,0,2.63-5.31,65.41,65.41,0,0,0,.62-10.53V132.37a68,68,0,0,0-.48-9.61,12.06,12.06,0,0,0-1.58-4.69,8.1,8.1,0,0,0-2.92-2.68,32.17,32.17,0,0,0-6.22-2.25v-4.69H595.5v4.69a26.38,26.38,0,0,0-6.08,2.1,8.84,8.84,0,0,0-3,2.64,11.68,11.68,0,0,0-1.63,4.73,65.29,65.29,0,0,0-.53,9.76Z"/><path class="cls-1" d="M728.92,108.45v28.9h-9.38a80.93,80.93,0,0,0-3-8.23,35.4,35.4,0,0,0-3.16-5.93,15.25,15.25,0,0,0-3.59-3.83,11.37,11.37,0,0,0-4.64-2,33.72,33.72,0,0,0-6.41-.53H668.53V167H689a14.91,14.91,0,0,0,6.6-1.2,9.33,9.33,0,0,0,4-4.06,37.6,37.6,0,0,0,3-9h9v36.75h-9a34.84,34.84,0,0,0-3-8.66,10.27,10.27,0,0,0-3.87-4.16,14.33,14.33,0,0,0-6.75-1.25H668.53v55.22h29.76a29.27,29.27,0,0,0,7.61-.81,11.85,11.85,0,0,0,5-2.78,18.29,18.29,0,0,0,3.74-5.12,43.67,43.67,0,0,0,2.72-6.55q1.11-3.41,3-9.91h9.47l-1.81,33.59H639.43v-4.69q5.94-1.53,8-3.39a9.3,9.3,0,0,0,2.63-5.31,65.41,65.41,0,0,0,.62-10.53V132.37a68,68,0,0,0-.48-9.61,11.9,11.9,0,0,0-1.58-4.69,8.07,8.07,0,0,0-2.91-2.68,32.6,32.6,0,0,0-6.23-2.25v-4.69Z"/><path class="cls-1" d="M925,111.22v26.51h-9.47a42,42,0,0,0-5.84-13.25,20.55,20.55,0,0,0-8.23-7,27.36,27.36,0,0,0-11.3-2.11,26.36,26.36,0,0,0-17.56,6.56q-7.7,6.55-12.1,19.71t-4.41,31.82q0,18.76,3.64,32t10.72,20a24.32,24.32,0,0,0,17.42,6.74q7.85,0,12.82-2.25a20.26,20.26,0,0,0,8.38-7.13q3.39-4.87,6.46-14.35H925v27.37a140.11,140.11,0,0,1-18.42,3.59,165,165,0,0,1-20.72,1.2q-24.32,0-36.75-16.47T836.7,175.06q0-20.48,6.46-35.89t19-23.83q12.54-8.41,30-8.42a117.2,117.2,0,0,1,32.92,4.3Z"/><path class="cls-1" d="M1017.77,240.62a56,56,0,0,1-20.91-3.78,40.81,40.81,0,0,1-16.17-11.78q-6.75-8-10.43-20.43t-3.69-29.76q0-21.35,6.51-36.66t18.62-23.3q12.1-8,28.08-8,17,0,28.67,7.51T1066,136.54q5.89,14.6,5.89,35.55,0,22.4-6.7,37.8T1046.25,233Q1034,240.61,1017.77,240.62Zm-31.48-68.43q0,29.38,8.56,44.69t25,15.31a25.28,25.28,0,0,0,17.71-6.65q7.26-6.64,10.91-19.47t3.63-30q0-20.87-4.26-34.6t-11.62-19.95a25.77,25.77,0,0,0-17.14-6.22,26.47,26.47,0,0,0-14.78,4,31.08,31.08,0,0,0-10.24,11.44,58.53,58.53,0,0,0-5.94,17.94A135.31,135.31,0,0,0,986.29,172.19Z"/><path class="cls-1" d="M1211.68,193.91a73.78,73.78,0,0,1-1.92,18,41.73,41.73,0,0,1-5.45,12.73,32.4,32.4,0,0,1-8.33,8.47,39.61,39.61,0,0,1-12.06,5.51,61.32,61.32,0,0,1-16.65,2,67.2,67.2,0,0,1-19.86-2.59,30.39,30.39,0,0,1-13.68-8.47,34.92,34.92,0,0,1-7.8-13.88q-2.4-8-2.39-20.33v-63a68,68,0,0,0-.48-10.09,12.93,12.93,0,0,0-1.39-4.17,8.05,8.05,0,0,0-2.63-2.63,25.66,25.66,0,0,0-6.41-2.34v-4.69h40.19v4.69c-3.57.89-6.06,1.9-7.46,3a8.62,8.62,0,0,0-2.88,5,56.72,56.72,0,0,0-.76,11.19v67.76a53.18,53.18,0,0,0,2,15.6,23.19,23.19,0,0,0,5.5,9.81,21,21,0,0,0,8.43,5.07,39.72,39.72,0,0,0,12.15,1.58,27.81,27.81,0,0,0,11.77-2.34,21.12,21.12,0,0,0,8.47-7.13,28.68,28.68,0,0,0,4.64-11.77,111.71,111.71,0,0,0,1.25-18.76V132.37q0-8.33-.82-11.38a9.07,9.07,0,0,0-2.68-4.69q-1.86-1.64-7.7-3.16v-4.69h38.19v4.69c-3.71,1-6.24,2-7.61,3.16a8.86,8.86,0,0,0-2.83,5,55.25,55.25,0,0,0-.76,11.1Z"/><path class="cls-1" d="M1258.1,108.45h103.55v33.3h-9.38a91.76,91.76,0,0,0-4.16-13,25.87,25.87,0,0,0-4.35-7.28,13.91,13.91,0,0,0-4.93-3.54,22.54,22.54,0,0,0-7.9-1h-12.15v98a51,51,0,0,0,.62,9,14.46,14.46,0,0,0,1.91,5.31,8.82,8.82,0,0,0,3.5,3.06,31.65,31.65,0,0,0,6.89,2.15v4.69H1288v-4.69A48.67,48.67,0,0,0,1293,233a12,12,0,0,0,3.59-1.87,8.69,8.69,0,0,0,2.3-2.82,16.54,16.54,0,0,0,1.43-4.69,53.71,53.71,0,0,0,.53-8.71v-98h-12.06a26.81,26.81,0,0,0-7.41.86,12,12,0,0,0-5.41,3.59,26.22,26.22,0,0,0-4.55,7.75,87.63,87.63,0,0,0-3.87,12.68h-9.48Z"/><path class="cls-1" d="M1496.41,193.91a74.31,74.31,0,0,1-1.91,18,41.74,41.74,0,0,1-5.46,12.73,32.36,32.36,0,0,1-8.32,8.47,39.72,39.72,0,0,1-12.06,5.51,61.37,61.37,0,0,1-16.65,2,67.11,67.11,0,0,1-19.86-2.59,30.42,30.42,0,0,1-13.69-8.47,35.16,35.16,0,0,1-7.8-13.88q-2.39-8-2.39-20.33v-63a68,68,0,0,0-.48-10.09,12.69,12.69,0,0,0-1.39-4.17,8,8,0,0,0-2.63-2.63,25.66,25.66,0,0,0-6.41-2.34v-4.69h40.19v4.69c-3.57.89-6.06,1.9-7.46,3a8.66,8.66,0,0,0-2.87,5,56.52,56.52,0,0,0-.77,11.19v67.76a53.52,53.52,0,0,0,2,15.6,23.2,23.2,0,0,0,5.51,9.81,21,21,0,0,0,8.42,5.07,39.72,39.72,0,0,0,12.15,1.58,27.89,27.89,0,0,0,11.78-2.34,21.1,21.1,0,0,0,8.46-7.13,28.69,28.69,0,0,0,4.65-11.77,113,113,0,0,0,1.24-18.76V132.37q0-8.33-.81-11.38a9.21,9.21,0,0,0-2.68-4.69q-1.87-1.64-7.71-3.16v-4.69h38.19v4.69q-5.55,1.44-7.61,3.16a8.9,8.9,0,0,0-2.82,5,55.05,55.05,0,0,0-.77,11.1Z"/><path class="cls-1" d="M1577.29,182.33v32.54a67.14,67.14,0,0,0,.52,10,12.28,12.28,0,0,0,1.58,4.69,8.13,8.13,0,0,0,2.88,2.59,31.64,31.64,0,0,0,6.22,2.24v4.69H1548.1v-4.69q5.93-1.53,7.94-3.39a9.24,9.24,0,0,0,2.63-5.31,64,64,0,0,0,.63-10.53V132.37a68,68,0,0,0-.48-9.61,12.06,12.06,0,0,0-1.58-4.69,8.19,8.19,0,0,0-2.92-2.68,32.44,32.44,0,0,0-6.22-2.25v-4.69h47.37q22.4,0,33.5,8.13t11.1,25.27q0,13.11-7.23,22.3t-21.67,14.35v.77a28.17,28.17,0,0,1,10,6.84q4.15,4.45,9.23,13.83l8.62,15.7a93.57,93.57,0,0,0,6.41,10.52,23.66,23.66,0,0,0,5.45,5.56,18.12,18.12,0,0,0,7.37,2.67v4.69h-26.51a113.54,113.54,0,0,1-6.89-10.91q-3.25-5.83-6.41-11.86l-8.42-16a101.25,101.25,0,0,0-6.27-10.71,19.4,19.4,0,0,0-4.5-4.84,12.93,12.93,0,0,0-4.4-1.91,34.68,34.68,0,0,0-7-.53Zm0-65.08V174.1h10.81a62.43,62.43,0,0,0,13.5-1.19,25.13,25.13,0,0,0,9.57-4.55,23.06,23.06,0,0,0,7-9.33,36.38,36.38,0,0,0,2.63-14.69q0-9.09-3.11-15.12a20.66,20.66,0,0,0-9.42-9.19q-6.32-3.16-17-3.16Q1582.65,116.87,1577.29,117.25Z"/><path class="cls-1" d="M1780.09,108.45v28.9h-9.38a78.71,78.71,0,0,0-3-8.23,36.15,36.15,0,0,0-3.16-5.93,15.44,15.44,0,0,0-3.59-3.83,11.48,11.48,0,0,0-4.64-2,33.87,33.87,0,0,0-6.41-.53H1719.7V167h20.48a15,15,0,0,0,6.61-1.2,9.39,9.39,0,0,0,4-4.06,37.67,37.67,0,0,0,3-9h9v36.75h-9a34.89,34.89,0,0,0-3-8.66,10.29,10.29,0,0,0-3.88-4.16,14.33,14.33,0,0,0-6.75-1.25H1719.7v55.22h29.77a29.32,29.32,0,0,0,7.61-.81,11.91,11.91,0,0,0,5-2.78,18.27,18.27,0,0,0,3.73-5.12,42.69,42.69,0,0,0,2.73-6.55q1.1-3.41,3-9.91h9.48l-1.82,33.59h-88.62v-4.69q5.92-1.53,7.94-3.39a9.31,9.31,0,0,0,2.64-5.31,65.41,65.41,0,0,0,.62-10.53V132.37a68,68,0,0,0-.48-9.61,12.06,12.06,0,0,0-1.58-4.69,8.1,8.1,0,0,0-2.92-2.68,32.44,32.44,0,0,0-6.22-2.25v-4.69Z"/><rect class="cls-1" x="153.21" width="1474.63" height="4"/><rect class="cls-1" x="153.21" y="343.53" width="1474.63" height="4"/></g></g></svg>